<svg width="15" height="14" viewBox="0 0 15 14" fill="none" xmlns="http://www.w3.org/2000/svg">
<path d="M6.56693 1.536C6.7536 1.04366 7.46002 1.04366 7.64727 1.536L8.85477 4.88083C8.89689 4.98979 8.97107 5.08341 9.06751 5.14934C9.16395 5.21526 9.27812 5.25039 9.39493 5.25008H12.3624C12.9107 5.25008 13.1498 5.93258 12.7188 6.26683L10.6071 8.16675C10.5125 8.23946 10.4434 8.34027 10.4096 8.45471C10.3759 8.56915 10.3793 8.69134 10.4193 8.80375L11.1904 12.0722C11.3783 12.5972 10.7704 13.0481 10.3108 12.7249L7.44252 10.9049C7.34429 10.8359 7.22716 10.7988 7.1071 10.7988C6.98704 10.7988 6.86991 10.8359 6.77168 10.9049L3.90343 12.7249C3.44435 13.0481 2.83593 12.5966 3.02377 12.0722L3.79493 8.80375C3.83494 8.69134 3.83831 8.56915 3.80456 8.45471C3.77082 8.34027 3.70169 8.23946 3.6071 8.16675L1.49543 6.26683C1.06377 5.93258 1.3041 5.25008 1.85127 5.25008H4.81868C4.93552 5.25047 5.04972 5.21537 5.14618 5.14944C5.24263 5.0835 5.31679 4.98984 5.35885 4.88083L6.56635 1.536H6.56693Z" fill="#FFD057" stroke="#FFD057" stroke-linecap="round" stroke-linejoin="round"/>
</svg>
